<?xml version="1.0" standalone="no"?>
<svg viewBox="0 0 200 200" xmlns="http://www.w3.org/2000/svg">
  <path fill="#4DA8DA" d="M36.7,-66.9C47.5,-57.5,55.9,-47.3,60.6,-36C65.4,-24.8,66.4,-12.4,64.8,-0.9C63.2,10.5,59,21.1,53.5,31C48,41,41.3,50.5,32.2,59.3C23.1,68,11.5,76,0.3,75.5C-10.9,75,-21.9,65.9,-36.2,60.2C-50.5,54.4,-68.1,51.9,-76.5,42.5C-85,33,-84.3,16.5,-82.8,0.8C-81.4,-14.8,-79.1,-29.6,-72.6,-42.5C-66.1,-55.3,-55.3,-66.2,-42.5,-74.5C-29.7,-82.8,-14.8,-88.4,-0.9,-86.8C13,-85.2,26,-76.4,36.7,-66.9Z" transform="translate(100 100)" />
</svg>
